<svg width="64" height="64" viewBox="0 0 786 786" fill="currentColor" xmlns="http://www.w3.org/2000/svg">
  <style>
    #octo {
      fill: black;
    }
    @media (prefers-color-scheme: dark) {
      #octo { 
        fill: white; 
      }
    }
  </style>
  <path id="octo" d="m250.67 284h1.33c4.72-19.15 5.24-45.92 30.67-34.67-18.29 8.72-22.34 25.14-24.23 44-3.58 35.81 17.21 70.16 57.56 62.67-5.62 31.55-37.85 65.98-61.33 85.66-15.45 12.95-33.5 24.29-43.53 42.34-16.12 29-0.51 54.26-0.47 84 0.03 19.82-7.11 41.19-28 48.12-14.26 4.73-34.03-3.62-35.66-20.12-1.86-18.91 17.93-19.05 28.99-12-8.88-17.76-32.55-4.09-33.28 12-1.63 35.83 43.63 36.71 65.28 20.95 45.87-33.41 5.55-104.95 65.33-127.61-23.12 30.94 9.49 60.3 26.77 84 21.47 29.43 31.39 62.62 23.33 98.67-9.56 42.73-65.69 103.72-111.43 67.31-20.11-16.01-21.83-54.42 7.99-61.49 13.09-3.1 32.85 10.82 14.67 19.51v1.33c9.96-1.13 14.14-11.63 7.24-19.56-5.23-6.01-14.33-7.56-21.9-6.98-35.34 2.69-39.38 48.08-20.71 70.52 31.16 37.45 88.45 16.17 118.04-10.87 45.28-41.39 48.88-113.54 20.93-165.11-13.53-24.96-40.91-43.93-40.91-74.67 0-26.57 20.15-43.67 29.84-66.67 7.73-18.35 11.06-38.54 17.74-57.33 18.06-50.75 41.82-104.45 13.33-156-6.31-11.42-15.79-20.21-24.92-29.33 28.22 14.05 45.26 45.07 46.61 76 0.52 11.86-3.96 23.06-3.84 34.67 0.11 9.95 6.05 19.16 6.5 29.33 1.17 26.57-2.93 52.33-5.38 78.67-1.79 19.23-5.45 40.76-1.95 60 1.53 8.38 6.89 18.43 16.71 18.38 9.14-0.04 13.71-9.3 15.17-17.04 3.6-19.04 1.37-42.22-0.89-61.33-3.08-26.02-8.01-52.36-6.17-78.67 0.71-10.16 6.87-19.55 7.37-29.33 0.65-12.67-4.01-25.64-3.44-38.67 1.28-29.07 20.21-59.45 46.61-72-11.15 10.67-21.54 20.83-28.9 34.67-24.97 46.92 0.36 101.58 16.83 146.67 7.22 19.77 11.89 40.62 20.09 60 9.65 22.8 29.08 40.27 29.08 66.67-0.01 31.41-29.79 51.33-44.49 76-30.68 51.47-27.66 121.61 15.64 165.27 29.67 29.91 87.1 46 120.96 13.17 20.88-20.25 20.84-63.65-11.88-72.09-8.38-2.16-18.61-1.52-25.19 4.62-7.7 7.19-6.67 18.05 3.85 21.03v-1.33c-17.99-10.5 7.32-23.52 20-17.96 29.36 12.89 20.09 50.25-2.67 63.98-47.93 28.93-99.71-25.92-108.73-70.03-6.32-30.89 0.91-64.32 20.29-89.33 19.82-25.59 60.86-58.83 36.45-94.67 6.45 2.36 11.98 6.13 17.33 10.41 9.14 7.32 18.17 16.74 21.62 28.26 7.2 24.06-1.13 47.49 12.16 70.67 12.61 21.99 43.84 38.05 67.55 22.71 20.12-13.02 16.63-50.84-12-44.04v1.33c37.13-3.07 15.03 51.8-17.33 36.01-48.2-23.53-5.63-79.99-19.25-117.34-9.38-25.75-31.73-39.26-51.42-56.39-24.49-21.31-50.8-51.7-60-83.61 18.31-2e-3 37.1-4.05 48.27-20 16.16-23.09 11.65-76.29-16.27-88 25.01-13.13 26.33 17.05 30.67 34.67h1.33c6.97-28.96 0.03-60.3 28-80-2.84-12.1-11.07-23.87-15.11-36-12.1-36.29-20.49-72.1-48.91-99.95-58.87-57.7-155.16-56.87-213.31 1.29-28.59 28.59-38.87 66.51-50.52 104-2.64 8.5-9.04 16.84-10.84 25.33-1.63 7.7 12.73 19.59 16.27 26.67 8.98 17.97 5.7 39.51 10.41 58.67m36-128c-2.39 12.85-2.62 30.14 9.46 38.49 10.53 7.28 24.1 7.69 34.54 15.75 21.23 16.39 30.27 48.26 22.67 73.76h-1.33c0-26.04-7.48-52.46-30.67-67.48-11.32-7.33-29.68-8.28-37.03-20.54-6.83-11.39-1.85-27.78-0.3-39.98h2.67m212 1.33c3.4 13.81 7.77 32.7-4.14 43.7-12.33 11.38-31.15 11.82-43.74 24.42-16.05 16.05-18.79 38.28-18.79 59.88h-1.33c-5.25-27.84-1.5-59.17 24-76.33 11.2-7.54 27.35-8.16 36.42-18.58 9.06-10.41 2.88-21.9 7.58-33.09m-166.67 24.44 0.44 0.44c-0.66 0.22-1.48-0.44-0.44-0.44m120 0c1.03 0 0.21 0.66-0.44 0.44l0.44-0.44m45.33 77.71c18.94 0.86 23.78 24.57 19.41 39.18-5.89 19.7-25.88 32.19-46.08 30.54-16.45-1.34-28.46-15.54-22.49-31.88 6.2-16.98 29.92-38.72 49.16-37.84m-213.33 1.04c32.13-7.23 80.2 56.08 33.33 67.16-20.38 4.82-41.58-8.08-48.32-27.69-4.81-13.98-2.3-35.59 14.99-39.47m-34.67 36.81c-7.18 27.75-14.15 54.87-41.33 70.08-19.74 11.05-41.3 5.45-62.67 7.48-44.15 4.2-86.09 27.34-104.92 69.11-14.3 31.72-11.27 78.9 15.64 103.75 18.62 17.2 55.68 17.55 55.95-14.42h-2.67c-1.11 23.99-26.53 25.65-39.48 9.33-15.72-19.81-12.94-49.2-2.76-70.66 14.65-30.9 46.32-51.55 79.57-56.75 14.46-2.26 29.45 0.57 44-0.81 34.83-3.32 72.96-22.03 88-55.77-13.44-9.07-22.89-19.56-26.05-36-1.54-8-0.19-17.98-3.28-25.33m285.33 2.67c-0.02 24.57-5.92 45.58-28 58.67 14.91 21.42 33.53 41.52 58.67 50.21 23.71 8.19 47.84 2.57 72 6.38 47.4 7.46 94.37 48.89 87.61 100.75-1.67 12.8-7.17 27.41-18.29 34.86-15.3 10.25-31.23-2.44-31.99-18.86h-1.33c-4.55 19.32 13.43 29.64 30.67 27.77 14.09-1.53 26.45-12.32 33.94-23.77 40.86-62.4-6.33-138.34-71.27-156.34-28.89-8.01-63.05 2.36-89.33-12.83-15.61-9.02-26.84-23.43-33.25-40.17-3.22-8.42-4.22-19.36-9.42-26.67m-125.33 10.67c-5.71 20.31-1.72 42.13 0.96 62.67 2.48 19 3.63 38.77 8.58 57.33 4.8 17.99 14.83 34.02 12.9 53.33-1.52 15.19-9.55 28.82-11.39 44-1.15 9.52 2.02 18.66 3.23 28 1.26 9.67-1.16 18.27 7.05 25.33 4.43-14.99-0.04-31.29 5-46.67 7.29-22.24 25.26-37.54 24.28-62.67-2.22-56.95-39.82-106.29-47.95-161.33h-2.67m-37.33 1.33c-10.82 38.12-24.99 75.15-35.81 113.33-5.65 19.95-12.89 38.86-10.62 60 2.17 20.19 18.41 35.36 23.56 54.67 4.24 15.9 0.04 33.63 8.21 48 5.42-7.95-1.03-15.49-0.41-24 0.91-12.43 7.9-22.64 6.96-36-1.1-15.66-9.81-29.67-10.49-45.33-0.81-18.44 8.48-34.5 12.61-52 4.3-18.2 4.25-37.51 6.77-56 2.16-15.85 10.16-49.32-0.77-62.67m244 266.67 1.33 1.33-1.33-1.33m-440 6.67 1.33 1.33z"/>
</svg>